<mxfile host="65bd71144e">
    <diagram id="ZdnWW_Yp1KBZFBbKh17l" name="Page-1">
        <mxGraphModel dx="584" dy="568" grid="1" gridSize="10" guides="1" tooltips="1" connect="1" arrows="1" fold="1" page="1" pageScale="1" pageWidth="827" pageHeight="1169" math="0" shadow="0">
            <root>
                <mxCell id="0"/>
                <mxCell id="1" parent="0"/>
                <mxCell id="2" value="" style="shape=cross;whiteSpace=wrap;html=1;" vertex="1" parent="1">
                    <mxGeometry x="260" y="250" width="80" height="80" as="geometry"/>
                </mxCell>
                <mxCell id="3" value="" style="shape=corner;whiteSpace=wrap;html=1;dx=30;dy=30;" vertex="1" parent="1">
                    <mxGeometry x="170" y="80" width="270" height="140" as="geometry"/>
                </mxCell>
            </root>
        </mxGraphModel>
    </diagram>
</mxfile>